<?xml version="1.0" encoding="UTF-8"?>
<!DOCTYPE svg PUBLIC "-//W3C//DTD SVG 1.1//EN" "http://www.w3.org/Graphics/SVG/1.1/DTD/svg11.dtd">
<svg xmlns="http://www.w3.org/2000/svg" version="1.1" width="794px" height="748px" style="shape-rendering:geometricPrecision; text-rendering:geometricPrecision; image-rendering:optimizeQuality; fill-rule:evenodd; clip-rule:evenodd" xmlns:xlink="http://www.w3.org/1999/xlink">
<g><path style="opacity:1" fill="#fefefe" d="M -0.5,-0.5 C 264.167,-0.5 528.833,-0.5 793.5,-0.5C 793.5,248.833 793.5,498.167 793.5,747.5C 528.833,747.5 264.167,747.5 -0.5,747.5C -0.5,498.167 -0.5,248.833 -0.5,-0.5 Z"/></g>
<g><path style="opacity:1" fill="#b2a7c6" d="M 544.5,39.5 C 547.482,38.8351 550.648,38.5018 554,38.5C 558.772,38.3078 563.272,38.9745 567.5,40.5C 559.862,39.6869 552.196,39.3536 544.5,39.5 Z"/></g>
<g><path style="opacity:1" fill="#422673" d="M 544.5,39.5 C 552.196,39.3536 559.862,39.6869 567.5,40.5C 576.644,43.4916 584.144,48.8249 590,56.5C 594.539,65.3188 597.539,74.6521 599,84.5C 601.583,87.9974 603.916,91.6641 606,95.5C 606.667,98.5 606.667,101.5 606,104.5C 602.333,109.5 598.667,114.5 595,119.5C 591.531,129.71 588.865,140.043 587,150.5C 636.43,125.285 686.097,100.618 736,76.5C 753.687,109.874 770.854,143.541 787.5,177.5C 782.739,180.722 777.739,183.722 772.5,186.5C 700.522,222.156 628.522,257.822 556.5,293.5C 549.777,281.055 543.277,268.389 537,255.5C 535.853,254.542 534.853,254.875 534,256.5C 517.383,281.605 500.217,306.272 482.5,330.5C 498.392,363.95 514.558,397.284 531,430.5C 532.664,439.51 530.997,447.843 526,455.5C 500.136,489.562 465.97,504.396 423.5,500C 418.62,498.645 414.453,496.145 411,492.5C 401.547,475.259 392.381,457.925 383.5,440.5C 365.274,456.896 346.607,472.73 327.5,488C 306.843,503.671 284.843,517.337 261.5,529C 260.748,529.671 260.414,530.504 260.5,531.5C 259.087,534.219 258.42,537.219 258.5,540.5C 249.107,565.686 231.774,573.186 206.5,563C 199.127,555.296 192.127,547.296 185.5,539C 173.348,531.843 166.348,521.343 164.5,507.5C 164.829,501.794 164.495,496.128 163.5,490.5C 162.893,490.624 162.56,490.957 162.5,491.5C 126.732,508.884 91.0653,526.551 55.5,544.5C 37.7927,510.92 20.4594,477.087 3.5,443C 79.3697,403.565 155.703,364.898 232.5,327C 233.579,326.044 234.745,325.211 236,324.5C 239.697,319.315 243.53,314.315 247.5,309.5C 248.396,308.494 249.062,308.494 249.5,309.5C 245.89,315.616 242.057,321.616 238,327.5C 242.185,344.203 249.852,359.203 261,372.5C 263.589,376.31 266.422,376.477 269.5,373C 261.881,365.974 261.548,358.474 268.5,350.5C 272.791,349.8 276.458,351.133 279.5,354.5C 277.35,357.151 275.017,359.651 272.5,362C 276.854,361.497 281.188,360.497 285.5,359C 283.291,355.414 280.957,351.914 278.5,348.5C 285.626,347.992 292.626,346.826 299.5,345C 309.645,340.43 319.312,335.096 328.5,329C 310.146,290.794 291.479,252.96 272.5,215.5C 276.514,215.666 280.514,215.499 284.5,215C 285.358,213.43 286.025,211.763 286.5,210C 283.724,203.614 280.557,197.448 277,191.5C 275.756,194.638 275.089,197.972 275,201.5C 272.651,204.017 270.151,206.35 267.5,208.5C 267.161,198.324 265.828,188.324 263.5,178.5C 263.52,177.274 263.853,176.274 264.5,175.5C 266.838,177.04 269.505,177.706 272.5,177.5C 279.182,171.322 285.848,164.822 292.5,158C 304.839,148.497 318.506,141.664 333.5,137.5C 336.495,137.706 339.162,137.04 341.5,135.5C 345.387,135.354 349.054,134.687 352.5,133.5C 357.544,133.827 362.544,133.494 367.5,132.5C 367.376,131.893 367.043,131.56 366.5,131.5C 360.097,127.178 352.93,125.178 345,125.5C 324.41,127.362 305.91,134.528 289.5,147C 280.112,154.538 273.778,164.038 270.5,175.5C 269.833,175.167 269.167,174.833 268.5,174.5C 266.122,173.308 264.122,171.641 262.5,169.5C 277.623,143.935 299.623,127.602 328.5,120.5C 337.453,119.286 346.453,118.62 355.5,118.5C 360.919,119.058 365.585,121.224 369.5,125C 377.372,133.203 384.872,141.703 392,150.5C 413.032,191.56 433.198,232.894 452.5,274.5C 452.171,276.991 451.171,279.157 449.5,281C 464.912,274.627 479.912,267.127 494.5,258.5C 495.59,257.391 495.59,256.391 494.5,255.5C 480.932,262.119 467.265,268.452 453.5,274.5C 454.626,270.914 456.293,267.581 458.5,264.5C 469.199,259.815 479.866,255.148 490.5,250.5C 490.211,246.894 490.544,243.394 491.5,240C 497.39,237.221 503.39,234.721 509.5,232.5C 514.704,234.744 520.037,235.078 525.5,233.5C 519.305,220.108 512.805,206.775 506,193.5C 505.333,192.5 505.333,191.5 506,190.5C 525.578,180.628 545.078,170.628 564.5,160.5C 570.194,146.251 575.194,131.751 579.5,117C 577.803,113.106 575.97,109.273 574,105.5C 573.333,101.5 573.333,97.5 574,93.5C 577.002,89.6662 580.169,85.9995 583.5,82.5C 584.124,82.0831 584.457,81.4164 584.5,80.5C 583.609,75.9087 582.275,71.5754 580.5,67.5C 577.499,59.0082 571.499,53.8416 562.5,52C 558.903,51.0284 555.236,50.5284 551.5,50.5C 535.712,52.012 520.546,56.012 506,62.5C 476.442,77.2567 448.609,94.5901 422.5,114.5C 422.167,114.5 421.833,114.5 421.5,114.5C 448.767,87.4051 479.767,65.5718 514.5,49C 524.515,45.4931 534.515,42.3264 544.5,39.5 Z"/></g>
<g><path style="opacity:1" fill="#beb4ce" d="M 580.5,67.5 C 582.275,71.5754 583.609,75.9087 584.5,80.5C 584.457,81.4164 584.124,82.0831 583.5,82.5C 582.341,77.5322 581.341,72.5322 580.5,67.5 Z"/></g>
<g><path style="opacity:1" fill="#f4f2f7" d="M 730.5,87.5 C 731.496,87.4142 732.329,87.7476 733,88.5C 738.745,100.323 744.745,111.99 751,123.5C 751.667,124.833 751.667,126.167 751,127.5C 748.485,129.423 745.818,131.09 743,132.5C 735.571,120.487 728.738,107.987 722.5,95C 724.948,92.2744 727.614,89.7744 730.5,87.5 Z"/></g>
<g><path style="opacity:1" fill="#f8f7fa" d="M 583.5,93.5 C 587.833,93.5 592.167,93.5 596.5,93.5C 596.5,96.8333 596.5,100.167 596.5,103.5C 592.539,112.383 588.039,112.716 583,104.5C 582.322,100.779 582.489,97.1122 583.5,93.5 Z"/></g>
<g><path style="opacity:1" fill="#eeebf2" d="M 713.5,96.5 C 714.978,96.238 716.311,96.5713 717.5,97.5C 724.868,109.569 731.201,122.236 736.5,135.5C 733.422,136.202 730.422,137.202 727.5,138.5C 726.833,138.167 726.167,137.833 725.5,137.5C 720.544,124.921 714.544,112.921 707.5,101.5C 709.162,99.3483 711.162,97.6817 713.5,96.5 Z"/></g>
<g><path style="opacity:1" fill="#ada2c2" d="M 583.5,93.5 C 587.97,92.5139 592.637,92.1805 597.5,92.5C 597.815,96.3714 597.482,100.038 596.5,103.5C 596.5,100.167 596.5,96.8333 596.5,93.5C 592.167,93.5 587.833,93.5 583.5,93.5 Z"/></g>
<g><path style="opacity:1" fill="#a79abd" d="M 704.5,106.5 C 703.21,105.942 702.377,104.942 702,103.5C 701.329,104.252 700.496,104.586 699.5,104.5C 702.137,101.779 703.804,102.446 704.5,106.5 Z"/></g>
<g><path style="opacity:1" fill="#f9f8fa" d="M 704.5,106.5 C 710.226,116.949 715.726,127.615 721,138.5C 721.494,140.134 721.66,141.801 721.5,143.5C 714.463,145.852 707.796,149.018 701.5,153C 698.868,153.449 696.368,154.283 694,155.5C 686.833,143.332 680.333,130.832 674.5,118C 682.164,112.498 690.497,107.998 699.5,104.5C 700.496,104.586 701.329,104.252 702,103.5C 702.377,104.942 703.21,105.942 704.5,106.5 Z"/></g>
<g><path style="opacity:1" fill="#9788b1" d="M 421.5,114.5 C 421.833,114.5 422.167,114.5 422.5,114.5C 420.572,117.615 417.906,119.448 414.5,120C 416.422,117.57 418.755,115.737 421.5,114.5 Z"/></g>
<g><path style="opacity:1" fill="#9787b2" d="M 355.5,118.5 C 346.453,118.62 337.453,119.286 328.5,120.5C 337.374,117.709 346.374,117.042 355.5,118.5 Z"/></g>
<g><path style="opacity:1" fill="#fbfafc" d="M 665.5,120.5 C 666.873,120.343 668.207,120.51 669.5,121C 675.446,132.391 681.279,143.891 687,155.5C 687.494,157.134 687.66,158.801 687.5,160.5C 671.623,167.438 655.956,174.938 640.5,183C 639.365,183.749 638.365,183.583 637.5,182.5C 630.951,170.07 624.951,157.404 619.5,144.5C 619.833,143.833 620.167,143.167 620.5,142.5C 635.96,135.936 650.96,128.603 665.5,120.5 Z"/></g>
<g><path style="opacity:1" fill="#f2f0f6" d="M 366.5,131.5 C 361.833,132.167 357.167,132.833 352.5,133.5C 349.054,134.687 345.387,135.354 341.5,135.5C 338.572,135.565 335.905,136.232 333.5,137.5C 318.506,141.664 304.839,148.497 292.5,158C 285.848,164.822 279.182,171.322 272.5,177.5C 271.833,176.833 271.167,176.167 270.5,175.5C 273.778,164.038 280.112,154.538 289.5,147C 305.91,134.528 324.41,127.362 345,125.5C 352.93,125.178 360.097,127.178 366.5,131.5 Z"/></g>
<g><path style="opacity:1" fill="#9a8bb3" d="M 366.5,131.5 C 367.043,131.56 367.376,131.893 367.5,132.5C 362.544,133.494 357.544,133.827 352.5,133.5C 357.167,132.833 361.833,132.167 366.5,131.5 Z"/></g>
<g><path style="opacity:1" fill="#8876a6" d="M 341.5,135.5 C 339.162,137.04 336.495,137.706 333.5,137.5C 335.905,136.232 338.572,135.565 341.5,135.5 Z"/></g>
<g><path style="opacity:1" fill="#f5f3f7" d="M 753.5,134.5 C 754.496,134.414 755.329,134.748 756,135.5C 761.483,145.801 766.816,156.134 772,166.5C 772.69,168.715 773.524,170.882 774.5,173C 774.415,174.107 774.081,175.107 773.5,176C 770.012,177.595 766.512,178.095 763,177.5C 758.033,165.566 752.533,153.899 746.5,142.5C 748.138,139.197 750.471,136.531 753.5,134.5 Z"/></g>
<g><path style="opacity:1" fill="#a092b8" d="M 366.5,141.5 C 370.214,141.59 373.548,142.59 376.5,144.5C 372.884,144.101 369.55,143.101 366.5,141.5 Z"/></g>
<g><path style="opacity:1" fill="#aea2c2" d="M 351.5,141.5 C 349.095,142.768 346.428,143.435 343.5,143.5C 345.838,141.96 348.505,141.294 351.5,141.5 Z"/></g>
<g><path style="opacity:1" fill="#f6f5f8" d="M 351.5,141.5 C 356.465,147.404 360.465,154.07 363.5,161.5C 359.763,163.531 355.763,165.198 351.5,166.5C 341.231,169.211 331.397,173.211 322,178.5C 318.26,172.693 314.76,166.693 311.5,160.5C 307.518,162.817 304.185,165.817 301.5,169.5C 303.724,174.949 306.224,180.282 309,185.5C 309.667,186.5 309.667,187.5 309,188.5C 303.857,183.544 299.69,177.878 296.5,171.5C 290.181,177.318 284.014,183.318 278,189.5C 277.333,188.5 277.333,187.5 278,186.5C 293.825,163.202 315.659,148.868 343.5,143.5C 346.428,143.435 349.095,142.768 351.5,141.5 Z"/></g>
<g><path style="opacity:1" fill="#f7f6f9" d="M 366.5,141.5 C 369.55,143.101 372.884,144.101 376.5,144.5C 379.288,145.655 381.455,147.655 383,150.5C 385.5,154.833 388,159.167 390.5,163.5C 384.155,164.319 377.821,163.986 371.5,162.5C 367.894,155.621 364.561,148.621 361.5,141.5C 363.167,140.334 364.834,140.334 366.5,141.5 Z"/></g>
<g><path style="opacity:1" fill="#f0edf4" d="M 737.5,143.5 C 738.978,143.238 740.311,143.571 741.5,144.5C 747.769,157.372 753.769,170.372 759.5,183.5C 756.722,183.806 754.222,184.806 752,186.5C 751.167,186.167 750.333,185.833 749.5,185.5C 743.221,173.275 737.221,160.942 731.5,148.5C 733.162,146.348 735.162,144.682 737.5,143.5 Z"/></g>
<g><path style="opacity:1" fill="#fbfafc" d="M 631.5,183.5 C 631.634,185.292 631.301,186.958 630.5,188.5C 614.868,196.232 599.035,203.565 583,210.5C 578.727,202.79 574.56,194.956 570.5,187C 573.918,178.835 577.584,170.835 581.5,163C 591.56,157.304 601.893,152.137 612.5,147.5C 619.845,158.852 626.178,170.852 631.5,183.5 Z"/></g>
<g><path style="opacity:1" fill="#f9f8fb" d="M 723.5,150.5 C 725.39,150.297 726.89,150.963 728,152.5C 734.256,164.51 740.089,176.676 745.5,189C 735.817,194.676 725.817,199.509 715.5,203.5C 710.601,190.367 704.601,177.7 697.5,165.5C 697.977,164.522 698.643,163.689 699.5,163C 707.719,159.059 715.719,154.892 723.5,150.5 Z"/></g>
<g><path style="opacity:1" fill="#7e6a9e" d="M 363.5,161.5 C 364.404,162.209 364.737,163.209 364.5,164.5C 360.193,165.327 355.86,165.993 351.5,166.5C 355.763,165.198 359.763,163.531 363.5,161.5 Z"/></g>
<g><path style="opacity:1" fill="#fbfbfc" d="M 689.5,167.5 C 690.978,167.238 692.311,167.571 693.5,168.5C 699.793,180.752 705.793,193.085 711.5,205.5C 696.183,214.16 680.516,222.327 664.5,230C 663.5,230.667 662.5,230.667 661.5,230C 655.039,217.578 648.706,205.078 642.5,192.5C 658.035,183.899 673.702,175.566 689.5,167.5 Z"/></g>
<g><path style="opacity:1" fill="#f7f6f9" d="M 407.5,199.5 C 405.052,200.473 402.385,200.806 399.5,200.5C 396.057,199.665 392.557,198.665 389,197.5C 384.046,188.931 380.212,179.931 377.5,170.5C 383.634,170.949 389.301,172.782 394.5,176C 399.893,183.231 404.226,191.065 407.5,199.5 Z"/></g>
<g><path style="opacity:1" fill="#f7f6f9" d="M 371.5,202.5 C 367.085,202.861 363.085,204.194 359.5,206.5C 352.64,208.594 345.973,211.26 339.5,214.5C 335.096,207.364 330.929,200.031 327,192.5C 325.951,191.483 324.784,191.316 323.5,192C 320.948,193.771 318.615,195.771 316.5,198C 320.381,206.925 324.381,215.758 328.5,224.5C 326.533,224.739 324.699,224.406 323,223.5C 319.495,215.818 315.495,208.485 311,201.5C 303.705,206.789 297.872,213.289 293.5,221C 296.797,228.43 299.964,235.93 303,243.5C 303.837,247.295 303.504,250.961 302,254.5C 296.768,248.253 292.768,241.253 290,233.5C 289.19,228.743 289.524,224.076 291,219.5C 303.4,197.941 321.567,183.608 345.5,176.5C 348.152,176.59 350.485,175.924 352.5,174.5C 357.811,171.667 363.477,171 369.5,172.5C 373.775,180.717 377.775,189.05 381.5,197.5C 381.167,198.167 380.833,198.833 380.5,199.5C 377.338,200.365 374.338,201.365 371.5,202.5 Z"/></g>
<g><path style="opacity:1" fill="#aca0c1" d="M 352.5,174.5 C 350.485,175.924 348.152,176.59 345.5,176.5C 347.515,175.076 349.848,174.41 352.5,174.5 Z"/></g>
<g><path style="opacity:1" fill="#9181ad" d="M 268.5,174.5 C 269.167,174.833 269.833,175.167 270.5,175.5C 271.167,176.167 271.833,176.833 272.5,177.5C 269.505,177.706 266.838,177.04 264.5,175.5C 266.099,175.768 267.432,175.434 268.5,174.5 Z"/></g>
<g><path style="opacity:1" fill="#f7f5f9" d="M 557.5,174.5 C 558.573,175.251 558.74,176.251 558,177.5C 549.333,192.833 540.667,208.167 532,223.5C 527.08,215.328 522.413,206.995 518,198.5C 517.219,197.056 517.386,195.723 518.5,194.5C 531.436,187.533 544.436,180.866 557.5,174.5 Z"/></g>
<g><path style="opacity:1" fill="#d6cfe0" d="M 787.5,177.5 C 788.776,178.386 788.776,179.386 787.5,180.5C 782.79,183.359 777.79,185.359 772.5,186.5C 777.739,183.722 782.739,180.722 787.5,177.5 Z"/></g>
<g><path style="opacity:1" fill="#b0a4c4" d="M 631.5,183.5 C 634.476,185.872 634.143,187.539 630.5,188.5C 631.301,186.958 631.634,185.292 631.5,183.5 Z"/></g>
<g><path style="opacity:1" fill="#f4f2f7" d="M 566.5,193.5 C 567.376,193.369 568.043,193.702 568.5,194.5C 570.746,199.326 573.246,203.992 576,208.5C 577.301,210.365 577.635,212.365 577,214.5C 568.311,219.609 559.478,223.609 550.5,226.5C 556.646,215.876 561.979,204.876 566.5,193.5 Z"/></g>
<g><path style="opacity:1" fill="#fbfafc" d="M 635.5,194.5 C 636.675,194.281 637.675,194.614 638.5,195.5C 643.806,207.446 649.639,219.112 656,230.5C 656.667,231.5 656.667,232.5 656,233.5C 639.612,242.777 622.779,251.111 605.5,258.5C 599.791,245.413 593.791,232.413 587.5,219.5C 603.495,211.169 619.495,202.836 635.5,194.5 Z"/></g>
<g><path style="opacity:1" fill="#816fa1" d="M 407.5,199.5 C 408.043,199.56 408.376,199.893 408.5,200.5C 405.355,201.803 402.355,201.803 399.5,200.5C 402.385,200.806 405.052,200.473 407.5,199.5 Z"/></g>
<g><path style="opacity:1" fill="#756098" d="M 371.5,202.5 C 367.767,204.411 363.767,205.744 359.5,206.5C 363.085,204.194 367.085,202.861 371.5,202.5 Z"/></g>
<g><path style="opacity:1" fill="#f6f5f8" d="M 395.5,206.5 C 401.723,206.644 407.389,208.477 412.5,212C 417.717,218.928 422.051,226.428 425.5,234.5C 419.526,235.206 413.526,235.04 407.5,234C 402.253,225.342 398.253,216.176 395.5,206.5 Z"/></g>
<g><path style="opacity:1" fill="#f8f7f9" d="M 314.5,250.5 C 313.662,250.158 313.328,249.492 313.5,248.5C 320.695,237.473 330.029,228.64 341.5,222C 353.303,215.932 365.636,211.265 378.5,208C 381.429,207.223 384.263,207.39 387,208.5C 391.472,217.108 395.639,225.775 399.5,234.5C 384.489,237.503 370.156,242.503 356.5,249.5C 351.929,242.031 347.596,234.364 343.5,226.5C 341.032,227.803 338.699,229.303 336.5,231C 335.426,231.739 334.759,232.739 334.5,234C 337.863,241.892 341.363,249.726 345,257.5C 345.667,258.5 345.667,259.5 345,260.5C 337.772,253.717 332.272,245.717 328.5,236.5C 324.146,241.521 319.479,246.188 314.5,250.5 Z"/></g>
<g><path style="opacity:1" fill="#fbfafc" d="M 579.5,222.5 C 581.592,222.561 583.092,223.561 584,225.5C 590.397,237.624 596.23,249.957 601.5,262.5C 588.29,268.104 575.29,274.27 562.5,281C 561.216,281.684 560.049,281.517 559,280.5C 552.497,268.164 546.663,255.497 541.5,242.5C 554.228,235.804 566.895,229.138 579.5,222.5 Z"/></g>
<g><path style="opacity:1" fill="#b1a6c4" d="M 416.5,242.5 C 409.151,242.549 401.817,242.882 394.5,243.5C 398.921,242.088 403.588,241.421 408.5,241.5C 411.355,241.503 414.022,241.836 416.5,242.5 Z"/></g>
<g><path style="opacity:1" fill="#f0eef4" d="M 502.5,240.5 C 512.17,239.057 513.837,241.89 507.5,249C 504.594,250.318 501.594,250.652 498.5,250C 497.446,248.612 497.28,247.112 498,245.5C 499.193,243.503 500.693,241.836 502.5,240.5 Z"/></g>
<g><path style="opacity:1" fill="#f4f2f6" d="M 416.5,242.5 C 421.004,242.619 425.004,243.952 428.5,246.5C 424.5,247.167 420.5,247.833 416.5,248.5C 411.924,248.438 407.591,249.105 403.5,250.5C 369.207,256.558 342.707,274.224 324,303.5C 324.012,296.787 325.679,290.454 329,284.5C 345.576,262.619 367.409,248.952 394.5,243.5C 401.817,242.882 409.151,242.549 416.5,242.5 Z"/></g>
<g><path style="opacity:1" fill="#beb5cf" d="M 428.5,246.5 C 429.609,246.557 430.609,246.89 431.5,247.5C 426.695,248.487 421.695,248.821 416.5,248.5C 420.5,247.833 424.5,247.167 428.5,246.5 Z"/></g>
<g><path style="opacity:1" fill="#66508d" d="M 431.5,247.5 C 432.043,247.56 432.376,247.893 432.5,248.5C 422.851,249.466 413.184,250.132 403.5,250.5C 407.591,249.105 411.924,248.438 416.5,248.5C 421.695,248.821 426.695,248.487 431.5,247.5 Z"/></g>
<g><path style="opacity:1" fill="#b9afcb" d="M 313.5,248.5 C 313.328,249.492 313.662,250.158 314.5,250.5C 312.748,252.246 311.415,254.246 310.5,256.5C 309.833,256.833 309.167,257.167 308.5,257.5C 309.41,254.008 311.076,251.008 313.5,248.5 Z"/></g>
<g><path style="opacity:1" fill="#c8c0d6" d="M 425.5,257.5 C 416.815,257.464 408.149,257.797 399.5,258.5C 404.233,256.954 409.233,256.287 414.5,256.5C 418.349,256.501 422.016,256.835 425.5,257.5 Z"/></g>
<g><path style="opacity:1" fill="#f2f1f5" d="M 310.5,256.5 C 313.987,263.473 317.487,270.473 321,277.5C 321.611,281.682 320.944,285.682 319,289.5C 314.304,283.444 310.637,276.777 308,269.5C 307.238,265.413 307.404,261.413 308.5,257.5C 309.167,257.167 309.833,256.833 310.5,256.5 Z"/></g>
<g><path style="opacity:1" fill="#f5f4f8" d="M 425.5,257.5 C 431.255,258.377 436.588,260.377 441.5,263.5C 437.521,263.654 433.521,263.987 429.5,264.5C 434.772,274.711 439.772,285.044 444.5,295.5C 441.301,295.59 438.468,294.257 436,291.5C 431.473,283.779 427.473,275.779 424,267.5C 421.741,264.216 418.741,262.216 415,261.5C 413.833,261.833 412.667,262.167 411.5,262.5C 417.638,273.778 422.972,285.445 427.5,297.5C 427.167,297.833 426.833,298.167 426.5,298.5C 422.813,295.647 419.647,292.314 417,288.5C 414.273,282.046 411.273,275.712 408,269.5C 406,267.5 404,265.5 402,263.5C 401.833,264 401.667,264.5 401.5,265C 406.655,276.14 411.655,287.307 416.5,298.5C 412.281,300.287 407.948,301.454 403.5,302C 397.284,291.07 391.451,279.903 386,268.5C 360.58,277.922 342.246,294.922 331,319.5C 330.803,312.413 332.47,305.747 336,299.5C 352.16,278.165 373.327,264.498 399.5,258.5C 408.149,257.797 416.815,257.464 425.5,257.5 Z"/></g>
<g><path style="opacity:1" fill="#ebe8f0" d="M 452.5,274.5 C 452.833,274.5 453.167,274.5 453.5,274.5C 467.265,268.452 480.932,262.119 494.5,255.5C 495.59,256.391 495.59,257.391 494.5,258.5C 479.912,267.127 464.912,274.627 449.5,281C 451.171,279.157 452.171,276.991 452.5,274.5 Z"/></g>
<g><path style="opacity:1" fill="#f7f6f9" d="M 499.5,270.5 C 501.028,270.517 501.528,271.184 501,272.5C 491.577,285.678 481.91,298.678 472,311.5C 468.074,304.323 464.74,296.989 462,289.5C 474.514,282.993 487.014,276.66 499.5,270.5 Z"/></g>
<g><path style="opacity:1" fill="#c5bdd4" d="M 446.5,303.5 C 436.41,303.626 426.41,304.626 416.5,306.5C 426.272,302.869 436.272,301.869 446.5,303.5 Z"/></g>
<g><path style="opacity:1" fill="#f9f8fa" d="M 446.5,303.5 C 453.373,303.771 459.039,306.438 463.5,311.5C 455.5,312.167 447.5,312.833 439.5,313.5C 403.301,318.923 375.301,336.923 355.5,367.5C 353.538,355.886 356.705,345.886 365,337.5C 379.311,322.428 396.478,312.094 416.5,306.5C 426.41,304.626 436.41,303.626 446.5,303.5 Z"/></g>
<g><path style="opacity:1" fill="#6f5994" d="M 249.5,309.5 C 249.062,308.494 248.396,308.494 247.5,309.5C 251.367,302.786 255.867,296.453 261,290.5C 261.315,291.908 260.982,293.241 260,294.5C 256.248,299.403 252.748,304.403 249.5,309.5 Z"/></g>
<g><path style="opacity:1" fill="#7f6ca0" d="M 463.5,311.5 C 464.289,311.783 464.956,312.283 465.5,313C 456.84,313.5 448.173,313.666 439.5,313.5C 447.5,312.833 455.5,312.167 463.5,311.5 Z"/></g>
<g><path style="opacity:1" fill="#edebf2" d="M 452.5,319.5 C 460.744,319.228 463.078,322.728 459.5,330C 452.854,329.566 450.52,326.066 452.5,319.5 Z"/></g>
<g><path style="opacity:1" fill="#fafafb" d="M 435.5,320.5 C 438.119,320.232 440.619,320.565 443,321.5C 446.6,327.367 449.6,333.367 452,339.5C 441.835,344.445 431.335,348.612 420.5,352C 417.147,353.677 414.147,355.843 411.5,358.5C 405.281,351.082 401.614,342.749 400.5,333.5C 411.918,328.143 423.584,323.81 435.5,320.5 Z"/></g>
<g><path style="opacity:1" fill="#edebf2" d="M 337.5,333.5 C 338.239,333.369 338.906,333.536 339.5,334C 325.175,346.329 308.842,354.662 290.5,359C 305.077,348.38 320.744,339.88 337.5,333.5 Z"/></g>
<g><path style="opacity:1" fill="#fafafb" d="M 228.5,339.5 C 229.822,339.33 230.989,339.663 232,340.5C 237.676,352.686 243.509,364.853 249.5,377C 236.354,384.408 223.02,391.575 209.5,398.5C 202.205,386.078 195.538,373.245 189.5,360C 189.645,359.228 189.978,358.561 190.5,358C 203.136,351.514 215.802,345.348 228.5,339.5 Z"/></g>
<g><path style="opacity:1" fill="#f2f0f5" d="M 383.5,343.5 C 386.614,344.091 389.114,345.758 391,348.5C 394.753,354.762 397.086,361.429 398,368.5C 390.591,361.685 385.758,353.351 383.5,343.5 Z"/></g>
<g><path style="opacity:1" fill="#f9f8fa" d="M 464.5,349.5 C 470.947,349.914 477.28,351.748 483.5,355C 488.924,362.508 493.59,370.508 497.5,379C 491.442,379.739 485.442,379.406 479.5,378C 474.598,368.36 469.598,358.86 464.5,349.5 Z"/></g>
<g><path style="opacity:1" fill="#fdfcfd" d="M 337.5,351.5 C 338.822,351.33 339.989,351.663 341,352.5C 345.451,361.904 350.284,371.07 355.5,380C 356.167,380.667 356.833,380.667 357.5,380C 360.5,377 363.5,374 366.5,371C 369.769,374.669 372.269,379.169 374,384.5C 375.31,389.452 374.31,393.785 371,397.5C 368.52,391.051 365.853,384.718 363,378.5C 360.906,381.032 359.073,383.699 357.5,386.5C 363.661,398.486 369.495,410.486 375,422.5C 345.154,451.696 312.987,477.863 278.5,501C 271.167,505.333 263.833,509.667 256.5,514C 255.5,514.667 254.5,514.667 253.5,514C 239.54,498.131 223.206,495.131 204.5,505C 198.152,511.536 192.652,518.703 188,526.5C 178.167,513.864 174.334,499.531 176.5,483.5C 212.714,465.56 248.714,447.393 284.5,429C 279.525,415.884 273.358,403.384 266,391.5C 265.333,390.5 265.333,389.5 266,388.5C 268.644,386.69 271.144,384.69 273.5,382.5C 276.167,384.833 278.833,387.167 281.5,389.5C 287.5,386.5 293.5,383.5 299.5,380.5C 300.197,376.623 300.864,372.79 301.5,369C 313.714,363.392 325.714,357.559 337.5,351.5 Z"/></g>
<g><path style="opacity:1" fill="#efedf3" d="M 458.5,355.5 C 463.311,362.44 467.644,369.774 471.5,377.5C 469.33,379.086 466.996,380.42 464.5,381.5C 462.286,372.88 460.286,364.213 458.5,355.5 Z"/></g>
<g><path style="opacity:1" fill="#fbfbfc" d="M 182.5,361.5 C 190.983,373.114 197.983,385.78 203.5,399.5C 203.167,400.167 202.833,400.833 202.5,401.5C 186.5,409.5 170.5,417.5 154.5,425.5C 151.419,419.669 148.085,414.002 144.5,408.5C 141.72,400.939 138.387,393.606 134.5,386.5C 150.561,378.137 166.561,369.804 182.5,361.5 Z"/></g>
<g><path style="opacity:1" fill="#f8f7fa" d="M 430.5,361.5 C 435.846,361.121 441.013,361.787 446,363.5C 447.69,370.346 447.857,377.179 446.5,384C 441.282,385.563 435.949,385.896 430.5,385C 424.636,381.434 422.47,376.267 424,369.5C 426.001,366.669 428.167,364.003 430.5,361.5 Z"/></g>
<g><path style="opacity:1" fill="#f1eff5" d="M 408.5,367.5 C 409.043,367.56 409.376,367.893 409.5,368.5C 408.049,371.836 407.383,375.336 407.5,379C 407.647,383.302 408.147,387.469 409,391.5C 406.167,388 403.333,384.5 400.5,381C 399.5,380.333 398.5,380.333 397.5,381C 392.667,386.5 387.833,392 383,397.5C 384.205,402.375 384.539,407.375 384,412.5C 381.689,417.869 380.022,417.535 379,411.5C 377.656,404.612 378.99,398.278 383,392.5C 390.069,382.597 398.569,374.263 408.5,367.5 Z"/></g>
<g><path style="opacity:1" fill="#f5f3f7" d="M 483.5,385.5 C 489.781,386.404 495.781,388.237 501.5,391C 505.88,396.253 509.38,402.086 512,408.5C 512.83,414.196 512.663,419.863 511.5,425.5C 476.513,422.897 447.347,434.897 424,461.5C 420.166,466.497 416.833,471.83 414,477.5C 414.956,470.239 417.623,463.572 422,457.5C 444.413,433.046 472.246,420.713 505.5,420.5C 505.509,418.692 505.009,417.025 504,415.5C 501,413.5 498,411.5 495,409.5C 490.883,401.6 487.049,393.6 483.5,385.5 Z"/></g>
<g><path style="opacity:1" fill="#fbfbfc" d="M 251.5,386.5 C 252.822,386.33 253.989,386.663 255,387.5C 261.31,399.954 267.477,412.454 273.5,425C 259.833,431.833 246.167,438.667 232.5,445.5C 226.052,432.77 219.718,419.936 213.5,407C 213.645,406.228 213.978,405.561 214.5,405C 226.925,398.787 239.259,392.621 251.5,386.5 Z"/></g>
<g><path style="opacity:1" fill="#faf9fb" d="M 467.5,386.5 C 470.448,386.223 473.281,386.556 476,387.5C 480.694,395.554 484.861,403.888 488.5,412.5C 473.576,416.252 459.243,421.586 445.5,428.5C 440.833,420.5 436.167,412.5 431.5,404.5C 428.833,407.5 426.167,410.5 423.5,413.5C 427.897,421.938 431.397,430.605 434,439.5C 430.667,437.5 428,434.833 426,431.5C 423.421,426.008 420.588,420.675 417.5,415.5C 412.187,419.645 407.02,423.979 402,428.5C 401.333,427.833 401.333,427.167 402,426.5C 412.635,410.548 427.468,401.048 446.5,398C 453.199,393.433 460.199,389.6 467.5,386.5 Z"/></g>
<g><path style="opacity:1" fill="#fbfbfc" d="M 126.5,389.5 C 127.978,389.238 129.311,389.571 130.5,390.5C 136.333,402.167 142.167,413.833 148,425.5C 148.667,426.5 148.667,427.5 148,428.5C 131.826,437.34 115.326,445.173 98.5,452C 92.0389,439.578 85.7055,427.078 79.5,414.5C 95.035,405.899 110.702,397.566 126.5,389.5 Z"/></g>
<g><path style="opacity:1" fill="#fcfcfd" d="M 205.5,409.5 C 206.675,409.281 207.675,409.614 208.5,410.5C 214.706,423.078 221.039,435.578 227.5,448C 210.989,456.755 194.323,465.255 177.5,473.5C 171.37,461.239 165.203,448.906 159,436.5C 158.333,435.5 158.333,434.5 159,433.5C 174.64,425.598 190.14,417.598 205.5,409.5 Z"/></g>
<g><path style="opacity:1" fill="#fbfafc" d="M 72.5,416.5 C 73.4959,416.414 74.3292,416.748 75,417.5C 82.005,430.506 88.1717,443.84 93.5,457.5C 83.6001,460.865 74.1001,465.198 65,470.5C 58.5156,457.531 52.0156,444.531 45.5,431.5C 54.366,426.234 63.366,421.234 72.5,416.5 Z"/></g>
<g><path style="opacity:1" fill="#f7f6f9" d="M 36.5,434.5 C 37.552,434.351 38.552,434.517 39.5,435C 47.7082,446.582 53.8749,459.082 58,472.5C 56.2609,474.741 54.0942,476.408 51.5,477.5C 44.2617,464.694 37.2617,451.694 30.5,438.5C 32.5654,437.143 34.5654,435.81 36.5,434.5 Z"/></g>
<g><path style="opacity:1" fill="#fcfbfc" d="M 151.5,436.5 C 152.496,436.414 153.329,436.748 154,437.5C 158.848,448.366 164.182,459.032 170,469.5C 170.837,471.821 171.17,474.155 171,476.5C 155.034,484.9 138.867,492.9 122.5,500.5C 115.578,487.656 108.911,474.656 102.5,461.5C 119.042,453.397 135.375,445.063 151.5,436.5 Z"/></g>
<g><path style="opacity:1" fill="#f3f1f6" d="M 395.5,435.5 C 398.298,436.706 400.465,438.706 402,441.5C 406.212,447.589 409.045,454.256 410.5,461.5C 410.299,463.973 409.632,466.306 408.5,468.5C 400.445,459.007 396.111,448.007 395.5,435.5 Z"/></g>
<g><path style="opacity:1" fill="#f6f5f8" d="M 512.5,438.5 C 509.167,439.167 505.833,439.833 502.5,440.5C 480.53,441.905 461.697,450.238 446,465.5C 442.581,469.331 439.914,473.665 438,478.5C 437.35,483.027 439.184,486.194 443.5,488C 449.037,489.726 454.704,490.726 460.5,491C 452.833,491.667 445.167,491.667 437.5,491C 429.481,487.078 427.314,480.911 431,472.5C 441.717,457.217 455.883,446.384 473.5,440C 486.353,434.789 499.353,434.289 512.5,438.5 Z"/></g>
<g><path style="opacity:1" fill="#a497bc" d="M 512.5,438.5 C 513.473,438.987 514.473,439.487 515.5,440C 511.179,440.499 506.846,440.666 502.5,440.5C 505.833,439.833 509.167,439.167 512.5,438.5 Z"/></g>
<g><path style="opacity:1" fill="#f8f7fa" d="M 23.5,440.5 C 24.675,440.281 25.675,440.614 26.5,441.5C 32.8333,454.167 39.1667,466.833 45.5,479.5C 45.2907,480.086 44.9574,480.586 44.5,481C 40.8754,482.669 37.2088,483.169 33.5,482.5C 27.4844,470.469 21.4844,458.469 15.5,446.5C 18.2347,444.479 20.9014,442.479 23.5,440.5 Z"/></g>
<g><path style="opacity:1" fill="#faf9fb" d="M 96.5,464.5 C 97.675,464.281 98.675,464.614 99.5,465.5C 105.228,477.956 111.228,490.289 117.5,502.5C 108.485,508.009 99.1513,513.009 89.5,517.5C 81.7531,505.013 74.7531,492.013 68.5,478.5C 77.6376,473.265 86.9709,468.598 96.5,464.5 Z"/></g>
<g><path style="opacity:1" fill="#f5f3f7" d="M 60.5,481.5 C 62.9806,481.323 64.8139,482.323 66,484.5C 72.3966,496.624 78.2299,508.957 83.5,521.5C 80.4196,521.748 77.4196,522.414 74.5,523.5C 67.3714,511.25 60.7047,498.583 54.5,485.5C 56.5654,484.143 58.5654,482.81 60.5,481.5 Z"/></g>
<g><path style="opacity:1" fill="#f7f5f9" d="M 47.5,488.5 C 48.675,488.281 49.675,488.614 50.5,489.5C 56.7055,502.078 63.0389,514.578 69.5,527C 66.399,528.966 63.2324,530.8 60,532.5C 52.2813,520.234 45.448,507.401 39.5,494C 39.6448,493.228 39.9781,492.561 40.5,492C 43.1739,491.33 45.5073,490.163 47.5,488.5 Z"/></g>
<g><path style="opacity:1" fill="#826fa2" d="M 162.5,491.5 C 162.56,490.957 162.893,490.624 163.5,490.5C 164.495,496.128 164.829,501.794 164.5,507.5C 163.833,502.167 163.167,496.833 162.5,491.5 Z"/></g>
<g><path style="opacity:1" fill="#faf9fb" d="M 219.5,517.5 C 222.187,517.336 224.854,517.503 227.5,518C 231.438,519.474 235.438,520.641 239.5,521.5C 239.666,527.176 239.499,532.843 239,538.5C 237.932,543.235 235.099,546.402 230.5,548C 218.143,550.325 210.477,545.325 207.5,533C 209.722,526.358 213.722,521.192 219.5,517.5 Z"/></g>
<g><path style="opacity:1" fill="#ada1c2" d="M 260.5,531.5 C 260.58,534.781 259.913,537.781 258.5,540.5C 258.42,537.219 259.087,534.219 260.5,531.5 Z"/></g>
<g><path style="opacity:1" fill="#3f2371" d="M 517.5,721.5 C 510.492,721.666 503.492,721.5 496.5,721C 493.647,719.57 490.647,718.737 487.5,718.5C 478.805,714.809 472.139,708.809 467.5,700.5C 473.345,694.987 479.845,690.321 487,686.5C 490.993,691.503 495.826,695.337 501.5,698C 506.257,698.81 510.924,698.476 515.5,697C 517.774,695.235 519.441,693.068 520.5,690.5C 519.946,688.372 518.613,686.872 516.5,686C 506.004,682.057 495.671,677.723 485.5,673C 474.13,665.075 469.964,654.242 473,640.5C 477.001,629.167 484.834,622 496.5,619C 514.047,616.067 528.214,621.567 539,635.5C 539.97,637.274 540.804,639.107 541.5,641C 535.025,645.074 528.358,648.907 521.5,652.5C 516.866,647.352 511.199,644.018 504.5,642.5C 500.021,643.482 497.354,646.316 496.5,651C 508.897,656.698 521.231,662.698 533.5,669C 546.014,680.989 547.847,694.489 539,709.5C 533.059,715.72 525.892,719.72 517.5,721.5 Z"/></g>
<g><path style="opacity:1" fill="#3f2371" d="M 176.5,655.5 C 177.34,664.138 177.673,672.805 177.5,681.5C 177.5,681.833 177.5,682.167 177.5,682.5C 175.928,685.215 174.928,688.215 174.5,691.5C 156.816,723.091 131.483,730.925 98.5,715C 72.2134,693.114 68.0468,667.614 86,638.5C 106.692,617.091 130.192,613.591 156.5,628C 166.262,635.065 172.928,644.232 176.5,655.5 Z"/></g>
<g><path style="opacity:1" fill="#725d96" d="M 594.5,620.5 C 597.649,619.835 600.982,619.502 604.5,619.5C 608.239,619.514 611.572,620.18 614.5,621.5C 607.922,620.54 601.255,620.207 594.5,620.5 Z"/></g>
<g><path style="opacity:1" fill="#a295ba" d="M 711.5,620.5 C 689.167,620.5 666.833,620.5 644.5,620.5C 644.5,628.167 644.5,635.833 644.5,643.5C 652.5,643.5 660.5,643.5 668.5,643.5C 668.5,669.167 668.5,694.833 668.5,720.5C 667.502,695.339 667.169,670.005 667.5,644.5C 659.5,644.5 651.5,644.5 643.5,644.5C 643.5,636.167 643.5,627.833 643.5,619.5C 666.339,619.169 689.006,619.503 711.5,620.5 Z"/></g>
<g><path style="opacity:1" fill="#998ab3" d="M 195.5,620.5 C 195.5,653.833 195.5,687.167 195.5,720.5C 203.5,720.5 211.5,720.5 219.5,720.5C 219.5,709.833 219.5,699.167 219.5,688.5C 223.833,688.5 228.167,688.5 232.5,688.5C 228.702,689.483 224.702,689.817 220.5,689.5C 220.5,700.167 220.5,710.833 220.5,721.5C 211.833,721.5 203.167,721.5 194.5,721.5C 194.168,687.663 194.502,653.996 195.5,620.5 Z"/></g>
<g><path style="opacity:1" fill="#3e2270" d="M 232.5,688.5 C 228.167,688.5 223.833,688.5 219.5,688.5C 219.5,699.167 219.5,709.833 219.5,720.5C 211.5,720.5 203.5,720.5 195.5,720.5C 195.5,687.167 195.5,653.833 195.5,620.5C 210.184,619.001 224.851,619.167 239.5,621C 257.133,624.966 266.467,635.966 267.5,654C 265.915,675.751 254.249,687.251 232.5,688.5 Z"/></g>
<g><path style="opacity:1" fill="#3d2170" d="M 284.5,620.5 C 305.5,620.5 326.5,620.5 347.5,620.5C 347.5,628.167 347.5,635.833 347.5,643.5C 334.5,643.5 321.5,643.5 308.5,643.5C 308.181,648.363 308.514,653.03 309.5,657.5C 320.654,658.495 331.988,658.828 343.5,658.5C 343.5,665.833 343.5,673.167 343.5,680.5C 331.833,680.5 320.167,680.5 308.5,680.5C 308.178,686.358 308.511,692.025 309.5,697.5C 322.5,697.5 335.5,697.5 348.5,697.5C 348.5,705.167 348.5,712.833 348.5,720.5C 327.167,720.5 305.833,720.5 284.5,720.5C 284.5,687.167 284.5,653.833 284.5,620.5 Z"/></g>
<g><path style="opacity:1" fill="#3d2170" d="M 369.5,620.5 C 377.84,620.334 386.173,620.5 394.5,621C 404.606,637.436 415.106,653.603 426,669.5C 425.243,653.163 425.41,636.83 426.5,620.5C 434.5,620.5 442.5,620.5 450.5,620.5C 450.5,653.833 450.5,687.167 450.5,720.5C 443.833,720.5 437.167,720.5 430.5,720.5C 418.5,702.5 406.5,684.5 394.5,666.5C 393.501,683.756 393.168,701.756 393.5,720.5C 385.5,720.5 377.5,720.5 369.5,720.5C 369.5,687.167 369.5,653.833 369.5,620.5 Z"/></g>
<g><path style="opacity:1" fill="#3f2471" d="M 594.5,620.5 C 601.255,620.207 607.922,620.54 614.5,621.5C 626.977,652.803 638.644,684.469 649.5,716.5C 649.5,717.833 649.5,719.167 649.5,720.5C 641.167,720.5 632.833,720.5 624.5,720.5C 623.069,714.969 621.069,709.635 618.5,704.5C 606.852,703.501 595.186,703.168 583.5,703.5C 582.202,709.559 580.202,715.392 577.5,721C 568.84,721.5 560.173,721.666 551.5,721.5C 562.367,690.091 573.534,658.758 585,627.5C 586.203,622.369 589.37,620.036 594.5,620.5 Z"/></g>
<g><path style="opacity:1" fill="#3f2371" d="M 711.5,620.5 C 713.833,620.5 716.167,620.5 718.5,620.5C 718.5,628.167 718.5,635.833 718.5,643.5C 710.149,643.482 701.816,643.815 693.5,644.5C 693.5,670.167 693.5,695.833 693.5,721.5C 685.082,721.802 676.748,721.469 668.5,720.5C 668.5,694.833 668.5,669.167 668.5,643.5C 660.5,643.5 652.5,643.5 644.5,643.5C 644.5,635.833 644.5,628.167 644.5,620.5C 666.833,620.5 689.167,620.5 711.5,620.5 Z"/></g>
<g><path style="opacity:1" fill="#998ab2" d="M 450.5,620.5 C 451.498,653.996 451.832,687.663 451.5,721.5C 444.313,721.825 437.313,721.491 430.5,720.5C 437.167,720.5 443.833,720.5 450.5,720.5C 450.5,687.167 450.5,653.833 450.5,620.5 Z"/></g>
<g><path style="opacity:1" fill="#a79abe" d="M 347.5,643.5 C 335.011,644.495 322.344,644.829 309.5,644.5C 309.5,648.833 309.5,653.167 309.5,657.5C 308.514,653.03 308.181,648.363 308.5,643.5C 321.5,643.5 334.5,643.5 347.5,643.5 Z"/></g>
<g><path style="opacity:1" fill="#fbfbfc" d="M 151.5,659.5 C 151.259,661.898 151.926,663.898 153.5,665.5C 155.654,673.137 154.154,680.137 149,686.5C 144.955,692.384 139.455,696.051 132.5,697.5C 127.463,697.587 122.463,697.254 117.5,696.5C 106.492,691.464 100.492,682.797 99.5,670.5C 101.48,654.52 110.48,645.52 126.5,643.5C 138.051,644.093 146.385,649.426 151.5,659.5 Z"/></g>
<g><path style="opacity:1" fill="#faf9fb" d="M 220.5,643.5 C 227.391,642.901 234.058,643.735 240.5,646C 245.799,651.494 245.799,656.994 240.5,662.5C 238.677,663.747 236.677,664.414 234.5,664.5C 229.833,664.5 225.167,664.5 220.5,664.5C 220.5,657.5 220.5,650.5 220.5,643.5 Z"/></g>
<g><path style="opacity:1" fill="#f2f0f5" d="M 600.5,658.5 C 601.87,658.856 602.87,659.69 603.5,661C 606.212,667.302 608.212,673.802 609.5,680.5C 603.794,680.829 598.128,680.495 592.5,679.5C 595.173,672.476 597.84,665.476 600.5,658.5 Z"/></g>
<g><path style="opacity:1" fill="#c4bcd3" d="M 220.5,643.5 C 220.5,650.5 220.5,657.5 220.5,664.5C 225.167,664.5 229.833,664.5 234.5,664.5C 229.695,665.487 224.695,665.821 219.5,665.5C 219.175,657.981 219.508,650.648 220.5,643.5 Z"/></g>
<g><path style="opacity:1" fill="#afa3c3" d="M 151.5,659.5 C 153.074,661.102 153.741,663.102 153.5,665.5C 151.926,663.898 151.259,661.898 151.5,659.5 Z"/></g>
<g><path style="opacity:1" fill="#7b679d" d="M 176.5,655.5 C 178.046,660.233 178.713,665.233 178.5,670.5C 178.499,674.349 178.165,678.016 177.5,681.5C 177.673,672.805 177.34,664.138 176.5,655.5 Z"/></g>
<g><path style="opacity:1" fill="#8371a2" d="M 284.5,620.5 C 284.5,653.833 284.5,687.167 284.5,720.5C 305.833,720.5 327.167,720.5 348.5,720.5C 327.006,721.497 305.34,721.831 283.5,721.5C 283.168,687.663 283.502,653.996 284.5,620.5 Z"/></g>
<g><path style="opacity:1" fill="#725d96" d="M 309.5,657.5 C 321.167,657.5 332.833,657.5 344.5,657.5C 344.5,665.5 344.5,673.5 344.5,681.5C 332.833,681.5 321.167,681.5 309.5,681.5C 309.5,686.833 309.5,692.167 309.5,697.5C 308.511,692.025 308.178,686.358 308.5,680.5C 320.167,680.5 331.833,680.5 343.5,680.5C 343.5,673.167 343.5,665.833 343.5,658.5C 331.988,658.828 320.654,658.495 309.5,657.5 Z"/></g>
<g><path style="opacity:1" fill="#9e90b7" d="M 369.5,620.5 C 369.5,653.833 369.5,687.167 369.5,720.5C 377.5,720.5 385.5,720.5 393.5,720.5C 393.168,701.756 393.501,683.756 394.5,666.5C 394.5,684.833 394.5,703.167 394.5,721.5C 385.833,721.5 377.167,721.5 368.5,721.5C 368.168,687.663 368.502,653.996 369.5,620.5 Z"/></g>
<g><path style="opacity:1" fill="#b4a9c7" d="M 177.5,682.5 C 177.868,686.044 176.868,689.044 174.5,691.5C 174.928,688.215 175.928,685.215 177.5,682.5 Z"/></g>
<g><path style="opacity:1" fill="#c7bfd5" d="M 117.5,696.5 C 122.463,697.254 127.463,697.587 132.5,697.5C 130.696,698.162 128.696,698.495 126.5,698.5C 123.186,698.657 120.186,697.991 117.5,696.5 Z"/></g>
<g><path style="opacity:1" fill="#79659a" d="M 649.5,716.5 C 650.339,717.641 651.006,718.974 651.5,720.5C 642.342,721.822 633.342,721.822 624.5,720.5C 632.833,720.5 641.167,720.5 649.5,720.5C 649.5,719.167 649.5,717.833 649.5,716.5 Z"/></g>
<g><path style="opacity:1" fill="#61498a" d="M 487.5,718.5 C 490.647,718.737 493.647,719.57 496.5,721C 503.492,721.5 510.492,721.666 517.5,721.5C 507.1,724.776 497.1,723.776 487.5,718.5 Z"/></g>
</svg>
